<svg width="1080" height="1279" viewBox="0 0 1080 1279" fill="none" xmlns="http://www.w3.org/2000/svg">
<rect width="1080" height="1279" fill="white"/>
<path d="M61.4 1154.32C54.5867 1154.32 48.4267 1153.15 42.92 1150.82C37.5067 1148.49 33.2133 1145.13 30.04 1140.74C26.8667 1136.35 25.2333 1131.17 25.14 1125.2H46.14C46.42 1129.21 47.82 1132.39 50.34 1134.72C52.9533 1137.05 56.5 1138.22 60.98 1138.22C65.5533 1138.22 69.1467 1137.15 71.76 1135C74.3733 1132.76 75.68 1129.87 75.68 1126.32C75.68 1123.43 74.7933 1121.05 73.02 1119.18C71.2467 1117.31 69.0067 1115.87 66.3 1114.84C63.6867 1113.72 60.0467 1112.51 55.38 1111.2C49.0333 1109.33 43.8533 1107.51 39.84 1105.74C35.92 1103.87 32.5133 1101.12 29.62 1097.48C26.82 1093.75 25.42 1088.8 25.42 1082.64C25.42 1076.85 26.8667 1071.81 29.76 1067.52C32.6533 1063.23 36.7133 1059.96 41.94 1057.72C47.1667 1055.39 53.14 1054.22 59.86 1054.22C69.94 1054.22 78.1067 1056.69 84.36 1061.64C90.7067 1066.49 94.2067 1073.31 94.86 1082.08H73.3C73.1133 1078.72 71.6667 1075.97 68.96 1073.82C66.3467 1071.58 62.8467 1070.46 58.46 1070.46C54.6333 1070.46 51.5533 1071.44 49.22 1073.4C46.98 1075.36 45.86 1078.21 45.86 1081.94C45.86 1084.55 46.7 1086.75 48.38 1088.52C50.1533 1090.2 52.3 1091.6 54.82 1092.72C57.4333 1093.75 61.0733 1094.96 65.74 1096.36C72.0867 1098.23 77.2667 1100.09 81.28 1101.96C85.2933 1103.83 88.7467 1106.63 91.64 1110.36C94.5333 1114.09 95.98 1118.99 95.98 1125.06C95.98 1130.29 94.6267 1135.14 91.92 1139.62C89.2133 1144.1 85.2467 1147.69 80.02 1150.4C74.7933 1153.01 68.5867 1154.32 61.4 1154.32ZM107.932 1114.56C107.932 1106.53 109.566 1099.53 112.833 1093.56C116.099 1087.49 120.626 1082.83 126.413 1079.56C132.199 1076.2 138.826 1074.52 146.293 1074.52C155.906 1074.52 163.839 1076.95 170.093 1081.8C176.439 1086.56 180.686 1093.28 182.833 1101.96H161.693C160.573 1098.6 158.659 1095.99 155.953 1094.12C153.339 1092.16 150.073 1091.18 146.153 1091.18C140.553 1091.18 136.119 1093.23 132.853 1097.34C129.586 1101.35 127.953 1107.09 127.953 1114.56C127.953 1121.93 129.586 1127.67 132.853 1131.78C136.119 1135.79 140.553 1137.8 146.153 1137.8C154.086 1137.8 159.266 1134.25 161.693 1127.16H182.833C180.686 1135.56 176.439 1142.23 170.093 1147.18C163.746 1152.13 155.813 1154.6 146.293 1154.6C138.826 1154.6 132.199 1152.97 126.413 1149.7C120.626 1146.34 116.099 1141.67 112.833 1135.7C109.566 1129.63 107.932 1122.59 107.932 1114.56ZM240.871 1074.66C246.751 1074.66 251.978 1075.97 256.551 1078.58C261.125 1081.1 264.671 1084.88 267.191 1089.92C269.805 1094.87 271.111 1100.84 271.111 1107.84V1153.34H251.511V1110.5C251.511 1104.34 249.971 1099.63 246.891 1096.36C243.811 1093 239.611 1091.32 234.291 1091.32C228.878 1091.32 224.585 1093 221.411 1096.36C218.331 1099.63 216.791 1104.34 216.791 1110.5V1153.34H197.191V1049.74H216.791V1085.44C219.311 1082.08 222.671 1079.47 226.871 1077.6C231.071 1075.64 235.738 1074.66 240.871 1074.66ZM324.19 1154.6C316.723 1154.6 310.003 1152.97 304.03 1149.7C298.057 1146.34 293.343 1141.63 289.89 1135.56C286.53 1129.49 284.85 1122.49 284.85 1114.56C284.85 1106.63 286.577 1099.63 290.03 1093.56C293.577 1087.49 298.383 1082.83 304.45 1079.56C310.517 1076.2 317.283 1074.52 324.75 1074.52C332.217 1074.52 338.983 1076.2 345.05 1079.56C351.117 1082.83 355.877 1087.49 359.33 1093.56C362.877 1099.63 364.65 1106.63 364.65 1114.56C364.65 1122.49 362.83 1129.49 359.19 1135.56C355.643 1141.63 350.79 1146.34 344.63 1149.7C338.563 1152.97 331.75 1154.6 324.19 1154.6ZM324.19 1137.52C327.737 1137.52 331.05 1136.68 334.13 1135C337.303 1133.23 339.823 1130.61 341.69 1127.16C343.557 1123.71 344.49 1119.51 344.49 1114.56C344.49 1107.19 342.53 1101.54 338.61 1097.62C334.783 1093.61 330.07 1091.6 324.47 1091.6C318.87 1091.6 314.157 1093.61 310.33 1097.62C306.597 1101.54 304.73 1107.19 304.73 1114.56C304.73 1121.93 306.55 1127.63 310.19 1131.64C313.923 1135.56 318.59 1137.52 324.19 1137.52ZM398.627 1049.74V1153.34H379.027V1049.74H398.627ZM412.952 1114.28C412.952 1106.44 414.492 1099.49 417.572 1093.42C420.745 1087.35 424.992 1082.69 430.312 1079.42C435.725 1076.15 441.745 1074.52 448.372 1074.52C454.159 1074.52 459.199 1075.69 463.492 1078.02C467.879 1080.35 471.379 1083.29 473.992 1086.84V1075.78H493.732V1153.34H473.992V1142C471.472 1145.64 467.972 1148.67 463.492 1151.1C459.105 1153.43 454.019 1154.6 448.232 1154.6C441.699 1154.6 435.725 1152.92 430.312 1149.56C424.992 1146.2 420.745 1141.49 417.572 1135.42C414.492 1129.26 412.952 1122.21 412.952 1114.28ZM473.992 1114.56C473.992 1109.8 473.059 1105.74 471.192 1102.38C469.325 1098.93 466.805 1096.31 463.632 1094.54C460.459 1092.67 457.052 1091.74 453.412 1091.74C449.772 1091.74 446.412 1092.63 443.332 1094.4C440.252 1096.17 437.732 1098.79 435.772 1102.24C433.905 1105.6 432.972 1109.61 432.972 1114.28C432.972 1118.95 433.905 1123.05 435.772 1126.6C437.732 1130.05 440.252 1132.71 443.332 1134.58C446.505 1136.45 449.865 1137.38 453.412 1137.38C457.052 1137.38 460.459 1136.49 463.632 1134.72C466.805 1132.85 469.325 1130.24 471.192 1126.88C473.059 1123.43 473.992 1119.32 473.992 1114.56ZM532.475 1087.82C534.995 1083.71 538.262 1080.49 542.275 1078.16C546.382 1075.83 551.048 1074.66 556.275 1074.66V1095.24H551.095C544.935 1095.24 540.268 1096.69 537.095 1099.58C534.015 1102.47 532.475 1107.51 532.475 1114.7V1153.34H512.875V1075.78H532.475V1087.82ZM603.216 1154.32C596.403 1154.32 590.243 1153.15 584.736 1150.82C579.323 1148.49 575.03 1145.13 571.856 1140.74C568.683 1136.35 567.05 1131.17 566.956 1125.2H587.956C588.236 1129.21 589.636 1132.39 592.156 1134.72C594.77 1137.05 598.316 1138.22 602.796 1138.22C607.37 1138.22 610.963 1137.15 613.576 1135C616.19 1132.76 617.496 1129.87 617.496 1126.32C617.496 1123.43 616.61 1121.05 614.836 1119.18C613.063 1117.31 610.823 1115.87 608.116 1114.84C605.503 1113.72 601.863 1112.51 597.196 1111.2C590.85 1109.33 585.67 1107.51 581.656 1105.74C577.736 1103.87 574.33 1101.12 571.436 1097.48C568.636 1093.75 567.236 1088.8 567.236 1082.64C567.236 1076.85 568.683 1071.81 571.576 1067.52C574.47 1063.23 578.53 1059.96 583.756 1057.72C588.983 1055.39 594.956 1054.22 601.676 1054.22C611.756 1054.22 619.923 1056.69 626.176 1061.64C632.523 1066.49 636.023 1073.31 636.676 1082.08H615.116C614.93 1078.72 613.483 1075.97 610.776 1073.82C608.163 1071.58 604.663 1070.46 600.276 1070.46C596.45 1070.46 593.37 1071.44 591.036 1073.4C588.796 1075.36 587.676 1078.21 587.676 1081.94C587.676 1084.55 588.516 1086.75 590.196 1088.52C591.97 1090.2 594.116 1091.6 596.636 1092.72C599.25 1093.75 602.89 1094.96 607.556 1096.36C613.903 1098.23 619.083 1100.09 623.096 1101.96C627.11 1103.83 630.563 1106.63 633.456 1110.36C636.35 1114.09 637.796 1118.99 637.796 1125.06C637.796 1130.29 636.443 1135.14 633.736 1139.62C631.03 1144.1 627.063 1147.69 621.836 1150.4C616.61 1153.01 610.403 1154.32 603.216 1154.32ZM674.389 1086.98C676.909 1083.43 680.362 1080.49 684.749 1078.16C689.229 1075.73 694.316 1074.52 700.009 1074.52C706.636 1074.52 712.609 1076.15 717.929 1079.42C723.342 1082.69 727.589 1087.35 730.669 1093.42C733.842 1099.39 735.429 1106.35 735.429 1114.28C735.429 1122.21 733.842 1129.26 730.669 1135.42C727.589 1141.49 723.342 1146.2 717.929 1149.56C712.609 1152.92 706.636 1154.6 700.009 1154.6C694.316 1154.6 689.276 1153.43 684.889 1151.1C680.596 1148.77 677.096 1145.83 674.389 1142.28V1190.3H654.789V1075.78H674.389V1086.98ZM715.409 1114.28C715.409 1109.61 714.429 1105.6 712.469 1102.24C710.602 1098.79 708.082 1096.17 704.909 1094.4C701.829 1092.63 698.469 1091.74 694.829 1091.74C691.282 1091.74 687.922 1092.67 684.749 1094.54C681.669 1096.31 679.149 1098.93 677.189 1102.38C675.322 1105.83 674.389 1109.89 674.389 1114.56C674.389 1119.23 675.322 1123.29 677.189 1126.74C679.149 1130.19 681.669 1132.85 684.749 1134.72C687.922 1136.49 691.282 1137.38 694.829 1137.38C698.469 1137.38 701.829 1136.45 704.909 1134.58C708.082 1132.71 710.602 1130.05 712.469 1126.6C714.429 1123.15 715.409 1119.04 715.409 1114.28ZM793.352 1074.66C799.232 1074.66 804.458 1075.97 809.032 1078.58C813.605 1081.1 817.152 1084.88 819.672 1089.92C822.285 1094.87 823.592 1100.84 823.592 1107.84V1153.34H803.992V1110.5C803.992 1104.34 802.452 1099.63 799.372 1096.36C796.292 1093 792.092 1091.32 786.772 1091.32C781.358 1091.32 777.065 1093 773.892 1096.36C770.812 1099.63 769.272 1104.34 769.272 1110.5V1153.34H749.672V1049.74H769.272V1085.44C771.792 1082.08 775.152 1079.47 779.352 1077.6C783.552 1075.64 788.218 1074.66 793.352 1074.66ZM914.33 1112.88C914.33 1115.68 914.144 1118.2 913.77 1120.44H857.07C857.537 1126.04 859.497 1130.43 862.95 1133.6C866.404 1136.77 870.65 1138.36 875.69 1138.36C882.97 1138.36 888.15 1135.23 891.23 1128.98H912.37C910.13 1136.45 905.837 1142.61 899.49 1147.46C893.144 1152.22 885.35 1154.6 876.11 1154.6C868.644 1154.6 861.924 1152.97 855.95 1149.7C850.07 1146.34 845.45 1141.63 842.09 1135.56C838.824 1129.49 837.19 1122.49 837.19 1114.56C837.19 1106.53 838.824 1099.49 842.09 1093.42C845.357 1087.35 849.93 1082.69 855.81 1079.42C861.69 1076.15 868.457 1074.52 876.11 1074.52C883.484 1074.52 890.064 1076.11 895.85 1079.28C901.73 1082.45 906.257 1086.98 909.43 1092.86C912.697 1098.65 914.33 1105.32 914.33 1112.88ZM894.03 1107.28C893.937 1102.24 892.117 1098.23 888.57 1095.24C885.024 1092.16 880.684 1090.62 875.55 1090.62C870.697 1090.62 866.59 1092.11 863.23 1095.1C859.964 1097.99 857.957 1102.05 857.21 1107.28H894.03ZM948.237 1087.82C950.757 1083.71 954.023 1080.49 958.037 1078.16C962.143 1075.83 966.81 1074.66 972.037 1074.66V1095.24H966.857C960.697 1095.24 956.03 1096.69 952.857 1099.58C949.777 1102.47 948.237 1107.51 948.237 1114.7V1153.34H928.637V1075.78H948.237V1087.82ZM1057.34 1112.88C1057.34 1115.68 1057.15 1118.2 1056.78 1120.44H1000.08C1000.54 1126.04 1002.5 1130.43 1005.96 1133.6C1009.41 1136.77 1013.66 1138.36 1018.7 1138.36C1025.98 1138.36 1031.16 1135.23 1034.24 1128.98H1055.38C1053.14 1136.45 1048.84 1142.61 1042.5 1147.46C1036.15 1152.22 1028.36 1154.6 1019.12 1154.6C1011.65 1154.6 1004.93 1152.97 998.958 1149.7C993.078 1146.34 988.458 1141.63 985.098 1135.56C981.831 1129.49 980.198 1122.49 980.198 1114.56C980.198 1106.53 981.831 1099.49 985.098 1093.42C988.365 1087.35 992.938 1082.69 998.818 1079.42C1004.7 1076.15 1011.46 1074.52 1019.12 1074.52C1026.49 1074.52 1033.07 1076.11 1038.86 1079.28C1044.74 1082.45 1049.26 1086.98 1052.44 1092.86C1055.7 1098.65 1057.34 1105.32 1057.34 1112.88ZM1037.04 1107.28C1036.94 1102.24 1035.12 1098.23 1031.58 1095.24C1028.03 1092.16 1023.69 1090.62 1018.56 1090.62C1013.7 1090.62 1009.6 1092.11 1006.24 1095.1C1002.97 1097.99 1000.96 1102.05 1000.22 1107.28H1037.04Z" fill="black"/>
<path d="M544.514 999.339C435.087 997.29 337.583 969.622 250.762 908.947C153.466 840.943 88.6087 749.681 56.1905 635.161C31.5973 547.812 36.0999 461.084 62.4008 375.132C89.2297 287.907 139.037 215.836 208.749 157.303C268.105 107.196 338.041 71.1852 413.307 51.9749C488.572 32.7646 567.212 30.8535 643.321 46.3851C760.17 70.4814 857.58 127.928 933.812 219.966C986.445 283.498 1018.93 356.594 1033.18 437.733C1047.43 518.872 1038.95 597.651 1011.44 674.598C975.826 774.336 913.194 853.24 825.13 911.99C752.065 960.586 671.827 988.16 584.695 997.072C570.07 998.563 555.289 998.749 544.514 999.339ZM920.708 358.892C916.485 360.755 925.677 356.408 920.708 358.892C913.535 345.571 933.129 353.427 920.708 358.892C913.784 362.184 929.018 350.957 922 354C917.249 356.08 927.664 374.822 929.061 380.473C934.744 401.93 939.557 423.604 944.991 445.123C945.906 448.231 947.569 451.068 949.835 453.383C957.07 461.084 964.74 468.381 972.068 476.02C979.397 483.659 986.259 491.142 993.37 498.719L995.823 497.601C993.649 480.492 992.097 463.289 989.178 446.303C977.409 377.989 952.754 315.047 910.958 259.184C857.145 187.206 787.775 135.753 704.245 103.676C642.086 80.2101 575.626 70.3141 509.327 74.6523C443.028 78.9905 378.424 97.4624 319.853 128.828C280.683 150.064 244.728 176.755 213.065 208.104C175.553 244.674 145.294 288.007 123.884 335.82C100.249 389.164 87.1728 446.581 85.3793 504.898C84.8825 518.437 85.3793 532.038 85.3793 545.608L88.4845 546.353C93.3286 539.832 98.4522 533.528 102.924 526.79C109.786 516.295 117.301 506.668 128.355 500.085C129.66 499.03 130.725 497.708 131.48 496.209C132.235 494.71 132.662 493.068 132.734 491.391C133.524 453.839 139.94 416.619 151.768 380.97C153.507 375.753 162.461 359.895 157.679 358.001C167.367 362.441 149.698 354.709 157.679 358.001C162.492 354.026 130.808 350.663 133.572 351.036C142.533 353.006 151.343 355.611 159.935 358.83L187.882 303.278L222.039 327.064C194.409 376.012 178.319 430.623 174.995 486.733C174.561 493.658 175.865 497.881 182.945 501.234C189.922 504.486 196.066 509.286 200.908 515.269C205.751 521.253 209.165 528.262 210.891 535.764C216.884 559.239 209.432 578.616 190.428 593.366C186.143 596.688 184.59 599.576 186.267 605.01C189.652 615.847 192.26 626.933 195.583 637.77C200.489 653.296 200.675 653.078 216.419 652.426C219.25 652.193 222.096 652.193 224.927 652.426C233.156 653.575 241.322 654.973 247.843 656.028L232.317 704.066L227.473 702.078C207.476 693.974 185.957 698.973 173.971 714.22C161.985 729.466 162.574 749.246 176.175 767.194C177.107 768.47 178.296 769.535 179.665 770.321C181.034 771.108 182.554 771.598 184.125 771.759C196.08 770.455 207.941 768.219 220.517 766.201C212.237 751.255 204.681 737.674 197.85 725.461L234.863 710.4L259.985 756.202C272.84 750.892 273.306 749.619 267.406 740.241C266.599 738.937 265.729 737.664 264.922 736.329C242.13 698.818 255.979 646.278 293.986 626.902C318.424 614.481 341.9 600.29 365.996 587.248C371.244 584.392 371.461 581.504 370.467 576.101C367.797 561.413 364.257 546.508 364.568 531.727C364.785 514.059 368.604 496.421 370.592 478.753C370.902 475.865 370.592 470.897 369.039 470.089C359.941 465.431 350.408 461.736 339.633 457.172C339.633 468.537 336.869 479.684 340.409 488.224C343.949 496.763 343.173 504.557 343.67 512.755C343.918 517.164 343.67 521.573 343.67 525.952C343.67 548.62 343.67 548.526 321.126 547.067C316.623 546.788 314.574 545.514 314.729 540.701C315.226 526.728 315.319 512.755 315.754 498.781C316.007 496.533 316.626 494.34 317.586 492.291C319.184 489.117 320.483 485.801 321.467 482.386C322.275 477.324 321.995 472.077 322.306 466.86C323.082 454.439 323.082 454.439 311.717 449.067C302.992 444.999 294.359 440.807 284.05 435.87C295.477 427.579 305.196 420.344 315.102 413.357C380.89 366.262 446.679 319.125 512.468 271.947C514.179 270.467 516.293 269.532 518.539 269.261C520.785 268.99 523.061 269.395 525.075 270.425C605.231 303.899 685.438 337.249 765.697 370.475C767.857 371.583 769.933 372.849 771.907 374.263C769.113 376.592 767.219 378.3 765.2 379.79C747.252 392.894 729.832 406.867 711.077 418.76C698.656 426.523 695.551 434.597 698.656 448.881C704.6 475.463 705.882 502.875 702.444 529.895C701.481 538 703.779 540.639 710.704 542.875C741.197 552.719 771.504 563.152 801.966 573.026C816.777 577.84 826.528 587.248 827.273 602.867C829.012 639.943 831.279 677.144 823.795 714.065C830.627 716.176 830.72 716.425 830.596 724.032C830.596 730.243 830.596 736.453 830.596 742.819C835.986 737.737 840.893 732.165 845.252 726.175C852.332 717.48 853.978 710.276 846.867 699.253C842.982 693.413 840.3 686.858 838.978 679.97C837.655 673.082 837.719 666 839.164 659.137C840.61 652.274 843.408 645.768 847.397 639.998C851.385 634.229 856.483 629.312 862.393 625.535C869.442 621.064 875.994 619.325 882.825 625.722C884.334 626.812 885.999 627.671 887.762 628.268C888.663 627.43 889.253 627.15 889.377 626.746C899.665 597.744 905.761 567.421 907.48 536.696C907.383 535.369 888.554 523.904 887.887 522.753C887.22 521.602 904.733 530.795 903.63 530.051C900.133 528.018 889.922 526.248 887.887 522.753C887.93 526.797 885.851 519.259 887.887 522.753C887.7 525.113 887.887 520.828 887.887 522.753C886.52 473.94 881.676 526.045 887.887 522.753C896.55 525.796 878.757 520.176 887.887 522.753C886.779 522.061 859.112 513.263 858.433 512.147C887.887 522.753 887.991 523.969 887.885 522.667C887.512 512.079 887.235 533.311 887.887 522.753C886.922 523.831 888.267 521.358 887.887 522.753C888.851 521.675 886.54 523.2 887.885 522.667C899.498 519.19 895.712 539.801 907.48 536.696C912.573 535.423 904.561 456.706 903.506 451.831C901.549 442.732 900.121 433.541 897.978 424.474C891.218 396.54 880.842 369.608 867.113 344.36C866.057 342.435 866.367 337.684 867.672 336.907C878.198 330.697 889.129 324.859 900.835 318.276L920.708 358.892ZM434.031 527.287C438.892 527.949 443.841 527.45 448.472 525.831C453.103 524.212 457.284 521.518 460.673 517.971C464.679 514.028 465.455 510.954 459.214 508.221C444.537 501.804 429.963 495.138 415.493 488.224C410.462 485.802 407.947 487.075 404.997 491.67C377.796 534.274 389.471 594.918 430.367 626.094C457.568 646.589 488.62 654.662 521.628 656.37C561.996 658.45 600.345 651.774 633.633 626.187C684.31 587.186 687.725 528.622 667.79 484.218C664.685 477.231 660.834 470.555 656.953 463.04C669.374 457.296 669.374 447.514 666.672 435.497C662.76 438.23 659.592 440.341 656.58 442.639C622.485 468.889 588.483 495.159 554.575 521.449C552.917 522.968 550.815 523.915 548.579 524.15C546.343 524.385 544.091 523.895 542.154 522.753C503.028 505.095 463.82 487.613 424.529 470.307C414.53 465.866 404.438 461.643 393.073 456.768C394.812 464.096 389.409 471.518 397.731 475.399C447.124 498.502 496.601 521.46 546.159 544.272C547.732 544.831 549.409 545.032 551.069 544.86C552.729 544.689 554.33 544.148 555.755 543.279C575.379 528.094 594.632 512.413 614.039 496.949C623.883 489.124 633.757 481.423 643.818 473.474C645.308 475.275 646.209 476.175 646.923 477.231C662.915 502.073 667.293 529.398 662.294 558.277C661.49 561.152 659.625 563.615 657.077 565.17C646.985 571.381 636.552 577.219 626.305 583.274C597.83 600.135 568.331 615.661 549.047 644.198C547.495 646.495 545.663 648.576 543.427 651.464C526.131 618.952 497.19 603.054 464.306 592.465C452.031 588.449 439.879 584.102 427.851 579.423C419.601 576.587 412.596 570.965 408.04 563.525C417.604 565.916 427.82 569.735 438.285 570.76C442.716 571.363 447.217 570.383 450.995 567.991C454.773 565.599 457.585 561.95 458.935 557.687C461.17 548.899 456.699 539.677 447.507 534.46C443.036 531.914 438.502 529.647 434.031 527.287ZM541.533 859.543C536.813 857.68 532.217 855.631 527.311 853.954C469.244 833.708 411.166 813.441 353.078 793.154C336.776 787.471 320.567 781.416 304.389 775.299C296.626 772.38 290.974 775.299 285.758 780.764C274.414 792.759 268.227 808.724 268.524 825.231C268.524 847.805 278.212 873.144 308.891 881.279C347.52 891.62 385.248 905.314 423.442 917.424C460.87 929.327 498.319 941.137 535.788 952.854C538.272 953.631 540.881 953.91 544.514 954.655C539.763 946.023 536.099 938.632 531.689 931.739C529.81 928.605 527.013 926.123 523.678 924.628C509.332 919.473 494.737 915.126 480.205 910.158C477.214 908.738 474.392 906.988 471.79 904.941L473.498 901.836L527.715 920.063L529.36 917.113C526.992 914.744 524.281 912.745 521.318 911.182C488.279 899.973 455.146 889.136 421.952 878.081C394.253 868.828 366.586 859.512 338.95 850.134C335.627 849.016 331.373 848.271 334.696 841.875L526.41 906.742L530.044 882.366C496.57 870.815 463.271 859.315 430.149 847.868C399.097 837.093 368.045 826.317 337.211 815.263C334.913 814.456 333.329 811.661 331.404 809.798L333.081 807.593C336.186 808.463 339.447 809.146 342.396 810.233L460.891 851.749C482.627 859.357 504.364 867.089 526.1 874.634C529.95 875.97 534.732 878.547 535.695 870.815C534.325 870.056 532.915 869.372 531.472 868.766L415.741 828.646C390.092 819.734 364.412 810.947 338.857 801.88C335.94 800.437 333.216 798.632 330.752 796.508L332.118 794.458C333.063 794.556 333.998 794.733 334.913 794.986C365.965 805.771 396.944 816.578 427.851 827.404C463.044 839.825 498.112 852.246 533.056 864.667C538.055 866.406 540.508 864.977 541.409 859.45L541.533 859.543ZM791.439 737.726C790.313 738.134 789.214 738.611 788.147 739.155C727.782 775.196 667.407 811.257 607.021 847.34C588.39 858.363 577.957 874.945 573.206 895.346C571.149 903.423 571.235 911.897 573.457 919.93C575.679 927.962 579.96 935.276 585.875 941.148C590.471 946.054 594.352 946.954 600.563 943.414C642.265 919.473 684.248 896.029 726.044 872.243C745.824 861.003 765.417 849.482 785.042 838.086C789.203 835.664 793.613 833.584 793.457 827.28C792.805 799.613 792.464 771.945 791.967 744.278C791.967 742.104 791.656 740.117 791.439 737.633V737.726ZM791.625 607.618C786.533 610.413 782.9 612.245 779.422 614.326C758.524 626.746 737.657 639.167 716.728 651.588C678.41 674.152 640.112 696.675 601.836 719.157C583.857 729.715 573.889 746.079 570.163 765.735C568.631 772.204 568.678 778.947 570.299 785.394C571.921 791.842 575.069 797.805 579.478 802.78C589.725 814.331 589.57 814.207 602.612 806.444C664.095 769.761 725.609 733.12 787.154 696.52C788.285 695.854 789.262 694.956 790.022 693.886C790.782 692.816 791.307 691.597 791.563 690.31C791.718 663.326 791.625 636.435 791.625 607.525V607.618ZM311.624 673.014L313.052 669.722C316.934 670.778 320.909 671.648 324.728 672.828C392.235 695.889 459.721 719.033 527.187 742.26C532.59 744.123 534.981 742.726 535.912 736.981C515.17 729.839 494.489 722.604 473.808 715.586C422.635 698.238 371.44 680.942 320.225 663.698C307.215 659.289 304.14 661.245 303.675 675.156C303.209 689.068 303.147 702.575 303.333 716.3C303.644 736.205 307.774 741.39 326.529 747.756C384.803 767.443 443.057 787.182 501.289 806.972C514.176 811.319 527.156 815.356 540.974 819.828C537.03 811.909 534.08 805.078 530.261 798.743C528.295 795.42 525.433 792.719 522.001 790.949C514.455 787.502 506.475 785.018 498.619 782.162L499.333 779.74L526.566 785.701L527.963 783.279C525.471 781.156 522.703 779.38 519.734 778.001C507.935 774.243 495.793 771.449 484.056 767.505C446.048 754.794 408.113 741.887 370.25 728.783C352.675 722.573 335.223 716.362 317.803 709.717C315.471 708.329 313.375 706.579 311.593 704.532L313.208 702.296L524.796 774.523C528.832 761.636 528.832 761.636 518.089 757.537C515.915 756.699 513.741 755.86 511.537 755.115C447.135 733.441 382.722 711.705 318.3 689.906C315.582 688.483 313.091 686.662 310.91 684.503L312.369 682.019C315.257 682.671 318.238 683.044 321.033 683.975C356.805 695.961 392.566 708.009 428.317 720.12C459.866 730.843 491.394 741.67 522.902 752.6C527.808 754.277 530.882 754.06 530.82 748.004C493.806 735.584 456.978 723.535 420.492 710.556C384.006 697.576 347.427 686.956 311.624 673.014ZM942.414 594.235C939.93 604.855 938.098 614.232 935.52 623.393C932.943 632.553 929.31 642.024 926.701 651.34C926.205 653.172 928.037 655.904 929.279 657.892C930.918 660.187 932.702 662.375 934.62 664.444C932.113 665.93 929.373 666.98 926.515 667.549C918.481 668 910.452 666.57 903.067 663.373C895.682 660.177 889.144 655.301 883.974 649.135C880.869 645.471 877.764 641.776 874.658 638.143C858.077 650.563 853.853 672.579 865.187 686.18C868.055 689.882 871.679 692.931 875.818 695.121C879.958 697.311 884.516 698.593 889.191 698.88C906.766 699.687 920.615 692.67 930.334 676.057L952.071 698.663C961.386 678.883 969.677 659.258 973.435 638.049C973.393 635.537 972.47 633.119 970.826 631.218C961.728 619.294 952.444 607.339 942.414 594.235ZM340.409 442.639L341.962 444.565C344.415 444.13 346.93 443.788 349.352 443.229C380.404 436.025 411.704 428.728 442.943 421.493C475.889 414.009 508.928 406.929 541.781 399.073C546.239 397.542 549.962 394.395 552.215 390.255C553.55 387.864 551.966 382.523 549.917 379.883C545.135 373.673 535.167 373.673 528.832 378.144C525.398 380.754 521.515 382.711 517.374 383.92C494.085 389.758 470.796 395.068 447.321 400.781C409.438 410.097 371.554 419.412 333.764 428.976C323.02 431.74 321.343 436.025 324.448 447.049C330.286 436.708 338.173 433.51 348.483 439.41L340.409 442.639ZM131.336 700.805C140.869 692.452 149.067 684.596 158.01 677.734C162.016 674.629 162.047 672.424 160.711 668.232C154.315 648.11 148.291 627.864 142.08 607.681C140.093 601.098 130.839 597.899 126.554 603.147C119.443 611.624 113.171 620.784 106.712 629.789C105.751 631.278 105.406 633.082 105.749 634.82C111.429 657.816 120.028 679.991 131.336 700.805ZM132.299 525.051L132.858 521.946C137.64 521.729 142.453 521.698 147.204 521.139C149.191 520.89 152.327 519.866 152.731 518.53C153.353 515.87 153.091 513.079 151.986 510.581C151.644 509.805 147.856 510.053 145.775 510.581C143.326 511.372 140.964 512.413 138.727 513.686C131.043 517.804 124.914 524.318 121.271 532.237C117.628 540.157 116.67 549.049 118.543 557.563C120.475 565.778 124.877 573.205 131.155 578.845C137.433 584.485 145.288 588.068 153.663 589.111C162.238 590.002 170.865 588.006 178.178 583.439C185.49 578.871 191.069 571.994 194.03 563.897C198.75 551.476 197.135 539.056 190.118 532.845C188.192 543.434 188.223 543.341 176.641 541.819C174.389 541.391 172.059 541.662 169.965 542.596C160.649 547.936 151.334 553.464 142.422 559.364C137.847 562.863 133.472 566.616 129.318 570.604L122.704 546.229L125.561 547.222C129.442 545.577 134.876 544.987 136.926 542.037C141.149 535.826 137.733 529.833 132.299 525.051ZM930.893 732.478C917.727 730.553 906.052 728.69 894.438 727.293C893.473 727.423 892.55 727.77 891.738 728.308C890.926 728.846 890.246 729.56 889.75 730.398C879.502 746.214 869.421 762.112 859.505 778.094C858.935 779.095 858.616 780.219 858.572 781.37C858.529 782.522 858.764 783.666 859.256 784.708C865.871 791.819 873.013 798.433 880.465 805.668C900.587 783.714 916.082 759.773 930.893 732.478ZM418.536 640.068C420.182 642.148 420.896 643.173 421.641 643.98C439.31 664.692 462.692 676.492 487.316 686.615C504.208 693.57 520.697 701.457 537.465 708.724C539.228 709.437 541.198 709.437 542.961 708.724C562.648 698.383 582.428 688.229 601.711 677.268C618.52 668.288 633.514 656.264 645.93 641.807C644.625 641.807 644.097 641.807 643.787 642.117C641.924 643.514 640.154 644.974 638.291 646.402C623.914 657.519 609.102 668.139 591.154 672.548C572.15 677.175 553.891 682.764 539.608 697.918C524.64 683.416 506.413 678.634 487.471 674.287C473.021 670.631 459.008 665.426 445.675 658.761C436.267 654.196 428.286 646.961 418.443 640.068H418.536ZM986.414 584.826C987.936 573.679 989.52 562.003 990.979 550.297C991.034 549.293 990.88 548.29 990.527 547.349C990.174 546.408 989.63 545.551 988.93 544.831C983.808 539.764 978.179 535.238 972.13 531.324C960.113 524.554 948.283 531.634 948.407 545.08C948.407 548.589 948.748 553.34 950.953 555.296C962.07 565.326 973.931 574.641 986.321 584.826H986.414Z" fill="#323232"/>
<path d="M233.141 295.765L200.909 274.464C279.719 177.985 380.452 125.414 503.79 117.9C657.187 108.584 795.679 185.655 862.161 283.127L830.55 303.435C753.386 210.279 655.634 157.491 533.538 154.665C410.634 151.902 311.92 202.237 233.141 295.765Z" fill="#323232"/>
<path d="M316.179 554.839H342.324L330.991 577.88H327.513L316.179 554.839Z" fill="#323232"/>
<path d="M310.118 842.249C310.455 850.249 310.372 858.261 309.87 866.252C309.404 870.413 307.23 876.841 304.436 877.71C300.865 878.797 295.12 876.375 291.704 873.549C273.073 857.34 271.614 821.506 289.034 804.179C291.829 801.416 297.17 798.435 300.151 799.366C302.144 800.276 303.903 801.631 305.292 803.327C306.681 805.022 307.663 807.014 308.162 809.148C310.025 820.016 310.305 831.164 311.267 842.187L310.118 842.249Z" fill="#323232"/>
<path d="M411.1 900.658C404.237 898.857 397.282 897.553 390.543 895.255C369.118 888.361 347.764 881.271 326.483 873.984C324.279 873.239 322.571 870.879 320.646 869.358L322.695 865.973L411.938 897.491L411.1 900.658Z" fill="#323232"/>
<path d="M750.621 832.623C747.56 835.582 744.268 838.292 740.777 840.728C718.42 853.676 696 866.563 673.394 879.077C644.485 895.1 615.358 910.75 586.294 926.524C583.002 928.294 579.493 929.629 576.077 931.306L574.214 929.257C575.585 927.112 577.258 925.177 579.183 923.512C588.871 917.581 598.652 911.805 608.589 906.309C652.186 882.13 695.835 858.023 739.535 833.989C742.558 832.498 745.669 831.191 748.851 830.077L750.621 832.623Z" fill="#323232"/>
<path d="M765.371 771.016C762.266 779.648 595.952 879.698 581.357 880.94C585.423 876.722 589.849 872.867 594.586 869.42C614.676 857.216 634.953 845.448 655.385 833.648C686.644 815.451 717.955 797.327 749.318 779.276C753.944 776.605 758.819 774.37 765.371 771.016Z" fill="#323232"/>
<path d="M740.312 807.719C737.921 813.153 588.157 901.341 571.762 906.837C571.296 899.975 576.451 897.304 580.798 894.696C597.193 884.914 613.806 875.444 630.481 865.942C661.533 848.097 692.668 830.273 723.885 812.47C728.792 809.707 734.164 807.719 739.411 805.359L740.312 807.719Z" fill="#323232"/>
<path d="M764.036 662.117C700.534 701.708 634.301 736.641 569.557 776.202C569.278 768.345 574.184 765.147 578.873 762.352C594.979 752.643 611.219 743.111 627.593 733.754C659.163 715.64 690.795 697.661 722.488 679.816C734.164 673.295 746.305 667.395 758.26 661.558C759.811 660.931 761.41 660.432 763.042 660.067L764.036 662.117Z" fill="#323232"/>
<path d="M749.659 687.766C745.902 697.081 585.27 795.578 568.875 798.062C571.064 795.243 573.575 792.69 576.358 790.454C591.263 781.139 606.385 772.227 621.414 763.191C659.96 740.067 698.485 716.965 736.99 693.883C740.375 691.864 744.101 690.405 749.659 687.766Z" fill="#323232"/>
<path d="M577.972 749.807C581.415 746.415 585.122 743.3 589.057 740.492C605.101 730.597 621.279 720.919 637.592 711.458C671.128 692.082 704.747 672.83 738.448 653.701C746.118 649.323 754.161 645.504 762.048 641.436L763.507 643.454C761.234 645.867 758.739 648.061 756.055 650.006C720.469 670.977 684.822 691.844 649.112 712.607C628.41 724.717 607.626 736.755 586.759 748.72C584.493 750.025 581.977 750.956 579.586 752.043L577.972 749.807Z" fill="#323232"/>
<path d="M302.945 726.86C324.526 734.468 346.418 741.61 366.571 752.509C343.901 747.993 321.832 740.865 300.803 731.269L302.945 726.86Z" fill="#323232"/>
<rect x="879.179" y="500.839" width="10" height="33" fill="white"/>
<rect x="852.179" y="514.891" width="10" height="33" transform="rotate(-64.8555 852.179 514.891)" fill="white"/>
<rect x="921.179" y="350.839" width="4" height="8" fill="white"/>
<rect x="919.179" y="355.839" width="4" height="1" fill="white"/>
<rect x="919.179" y="350.839" width="5" height="4" fill="white"/>
<rect x="919.179" y="354.839" width="2" height="1" fill="white"/>
<rect x="920.179" y="355.839" width="2" height="2" fill="white"/>
<rect x="887.179" y="519.839" width="20" height="18" fill="white"/>
<rect x="886.179" y="550.839" width="5" height="2" fill="white"/>
<rect x="133.589" y="345.839" width="29" height="7" transform="rotate(20.1374 133.589 345.839)" fill="white"/>
<circle cx="157.179" cy="548.839" r="40" fill="white"/>
</svg>
