<svg width="1080" height="946" viewBox="0 0 1080 946" fill="none" xmlns="http://www.w3.org/2000/svg">
<rect width="1080" height="946" fill="white"/>
<path d="M232.289 293.62C236.404 276.621 242.711 271.831 258.673 273.122C269.515 273.993 275.191 280.225 276.347 292.538C313.137 299.371 430.776 242.834 453.54 207.185C451.827 206.699 450.154 206.076 448.54 205.323C444.335 202.966 442.218 199.317 443.344 194.512C444.395 190.097 447.384 187.199 452.204 187.424C458.286 187.724 461.92 185.922 465.103 179.916C470.644 169.329 487.883 170.771 494.025 181.988C496.097 185.772 497.929 187.394 502.419 187.033C508.575 186.538 512.93 190.037 513.771 194.887C514.762 200.263 511.954 204.768 505.647 206.405C502.133 207.321 502.464 209.408 502.524 211.87C503.004 229.32 503.38 246.769 504.025 264.203C505.016 291.232 506.158 318.261 507.269 345.201C507.389 348.354 507.674 351.508 507.87 354.526C515.183 354.526 522.045 354.451 528.893 354.526C541.641 354.691 554.42 354.781 567.154 355.277C571.659 355.457 573.476 354.361 573.656 349.586C575.068 312.465 576.78 275.345 578.161 238.224C578.537 228.313 578.161 218.388 578.161 208.191C576.209 207.516 574.303 206.713 572.455 205.789C570.387 204.805 568.741 203.113 567.815 201.019C566.889 198.924 566.745 196.568 567.409 194.376C568.641 189.781 571.914 186.973 577.005 187.424C582.095 187.874 585.444 186.928 587.697 181.327C590.324 174.78 596.706 172.678 603.569 172.918C606.789 172.938 609.93 173.92 612.589 175.736C615.249 177.553 617.305 180.122 618.495 183.114C619.772 185.892 620.883 187.619 624.502 187.484C633.001 187.304 636.74 189.736 637.566 194.992C638.497 200.999 635.959 204.272 626.769 207.861C676.023 257.73 736.899 281.441 803.542 293.77C808.197 276.291 812.912 272.461 828.079 273.167C840.287 273.738 846.023 279.414 848.125 293.214C849.867 293.439 851.714 293.575 853.501 293.965C857.736 294.896 860.784 297.254 861.01 301.834C861.235 306.414 860.033 310.708 855.198 312.24C851.834 313.291 851.489 315.243 851.624 318.096C852.575 337.587 853.476 357.079 854.327 376.57C855.033 392.322 857.33 408.209 855.934 423.781C854.182 442.41 850.785 460.847 845.783 478.876C832.102 529.117 805.729 574.995 769.199 612.102C720.111 662.587 660.556 694.001 590.91 705.504C508.816 719.018 432.983 701.945 364.163 655.95C289.757 606.17 244.482 536.479 226.988 448.619C222.589 426.529 225.412 404.485 226.117 382.411C226.793 361.043 227.995 339.69 228.971 318.321C229.091 315.844 229.316 313.576 225.967 312.72C220.501 311.339 218.459 307.134 219.12 301.984C219.781 296.833 223.415 294.37 228.535 294.085C229.811 293.89 230.908 293.74 232.289 293.62ZM734.872 528.596C734.872 532.125 735.052 535.473 734.872 538.807C734.572 543.132 735.277 545.699 740.668 545.834C746.059 545.97 750.279 551.961 750.174 557.352C750.111 560.092 749.005 562.704 747.083 564.658C745.161 566.611 742.566 567.757 739.827 567.863C738.326 567.999 736.959 568.179 735.322 568.359V584.502C742.831 584.967 746.72 589.457 748.387 596.304C764.574 582.61 775.656 566.932 777.353 545.504C779.365 519.976 778.119 495.274 765.881 472.089C750.669 443.273 726.358 424.968 697.001 412.714C654.775 395.115 610.371 387.607 564.857 385.685C530.679 384.183 496.607 385.52 462.745 391.121C430.791 396.407 399.496 404.005 370.455 418.781C346.429 430.974 326.907 448.048 314.489 472.344C300.884 498.893 299.563 527.064 304.908 555.655C308.137 572.894 318.979 585.688 333.019 597.13C333.575 588.556 338.545 585.343 345.392 584.412V568.524C334.731 567.428 331.307 564.815 330.932 557.712C330.541 550.294 334.491 546.75 345.407 544.813V528.295C344.727 528.099 344.035 527.944 343.335 527.83C334.476 527.515 330.691 524.361 330.586 517.183C330.481 509.149 334.896 504.855 343.696 504.735C353.081 504.6 362.466 504.735 371.851 504.735H422.907L423.027 502.212C408.191 500.845 393.355 499.404 378.519 498.158C371.941 497.617 368.007 493.833 368.007 487.451C368.007 481.069 372.077 476.113 378.128 476.159C388.234 476.159 398.46 476.159 408.401 477.66C435.13 481.76 459.697 492.797 484.549 502.783C507.96 512.183 527.196 526.809 540.44 549.048C541.942 547.036 543.188 545.459 544.254 543.732C554.264 527.665 569.012 515.099 586.465 507.768C603.779 500.17 621.604 493.713 639.248 486.88C659.054 479.207 679.522 475.002 700.815 476.098C704.092 476.294 707.233 477.477 709.825 479.492C711.45 480.816 712.588 482.642 713.061 484.684C713.534 486.725 713.315 488.866 712.438 490.769C710.44 495.515 706.701 497.722 701.461 498.142C686.444 499.344 671.518 500.86 656.547 502.242L656.667 504.119H666.698C690.333 504.299 713.984 504.419 737.62 504.72C745.008 504.81 749.933 509.585 750.249 516.342C750.549 522.829 746.134 527.274 738.611 528.055C737.605 528.235 736.614 528.385 734.872 528.596ZM671.713 367.575L729.691 380.474C730.037 379.753 730.337 379.423 730.337 379.093C730.457 351.342 730.622 323.532 730.457 295.842C730.457 294.22 728.1 291.968 726.313 291.082C709.72 282.883 693.006 274.924 676.323 266.89C674.912 266.215 673.44 265.659 671.713 264.908V367.575ZM408.927 368.071V265.554C408.389 265.571 407.854 265.652 407.335 265.794C389.616 274.294 371.866 282.718 354.282 291.472C353.416 292.124 352.706 292.961 352.205 293.923C351.704 294.884 351.423 295.945 351.384 297.028C351.219 323.097 351.294 349.18 351.384 375.249C351.384 377.05 351.579 378.867 351.684 380.745L408.927 368.071ZM280.176 402.023C282.744 401.377 284.501 400.987 286.183 400.521C300.899 396.211 315.555 391.646 330.376 387.682C334.881 386.451 336.067 384.394 336.037 379.964C335.797 356.343 335.887 332.722 335.857 309.101V298.77L276.242 312.51C277.544 341.672 278.86 371.509 280.191 402.023H280.176ZM746.224 298.845C746.224 326.595 746.224 354.121 746.224 381.646C746.224 385.039 747.966 386.045 750.729 386.886C765.746 391.391 780.762 396.061 795.778 400.641C797.28 401.107 798.932 401.302 800.989 401.722C802.205 371.254 803.377 341.447 804.518 312.645L746.224 298.845ZM676.158 650.423C672.013 649.538 668.905 648.922 665.842 648.216C646.065 643.546 626.078 641.939 606.317 647.255C592.982 650.844 580.008 655.904 567.064 660.77C555.306 665.275 543.383 668.623 530.89 665.725C522.338 663.695 513.982 660.916 505.917 657.421C483.708 647.931 460.943 641.699 436.557 644.567C426.571 645.753 416.705 647.991 406.779 649.748L406.915 651.384C418.342 657.766 429.724 663.923 443.69 663.037C449.67 662.573 455.686 663.121 461.484 664.659C474.789 668.413 487.883 672.978 500.977 677.438C517.105 682.919 533.457 685.817 550.621 684.27C565.638 682.919 579.438 677.903 593.238 672.588C606.752 667.392 620.477 662.166 635.088 663.037C650.24 664.013 662.838 658.517 676.158 650.423ZM455.222 232.968C446.363 239.741 438.509 246.078 430.265 251.844C428.856 252.685 427.709 253.902 426.954 255.358C426.198 256.814 425.862 258.452 425.985 260.088C426.09 292.884 425.985 325.68 425.985 358.475C425.985 360.307 426.15 362.124 426.271 364.407L452.234 361.103C453.255 318.457 454.306 276.201 455.222 232.983V232.968ZM655.09 364.557V355.202C655.09 326.295 654.67 297.374 655.27 268.482C655.465 259.037 654.009 252.084 644.864 247.459C639.623 244.771 635.374 240.176 630.658 236.467C629.292 235.401 627.88 234.395 626.153 233.074C627.175 276.035 628.181 318.186 629.157 360.953L655.09 364.557ZM552.829 608.393C553.631 607.942 554.403 607.44 555.141 606.891C568.145 594.713 583.447 587.144 601.316 586.093C617.955 585.132 634.668 585.388 651.351 585.282C670.482 585.172 689.613 585.172 708.744 585.282C712.978 585.282 716.792 583.871 717.588 579.937C718.158 576.38 717.45 572.736 715.591 569.65C714.39 567.758 710.44 566.782 707.707 566.767C675.672 566.597 643.602 566.597 611.497 566.767C608.115 566.825 604.751 567.263 601.467 568.074C579.032 573.239 563.926 587.325 552.829 608.408V608.393ZM526.054 607.041C520.378 587.595 494.04 567.383 472.326 566.963C438.584 566.302 404.752 566.737 371.04 566.797C369.874 566.823 368.723 567.079 367.656 567.55C366.589 568.022 365.625 568.701 364.821 569.546C364.017 570.392 363.388 571.389 362.971 572.479C362.554 573.569 362.357 574.731 362.391 575.897C362.391 582.024 366.04 585.388 372.902 585.403C403.1 585.403 433.298 585.297 463.496 585.403C471.366 585.338 479.229 585.84 487.027 586.904C501.983 589.247 514.672 596.605 526.054 607.116V607.041ZM557.063 639.657C560.517 638.29 562.394 637.584 564.241 636.804C580.128 630.151 596.346 626.112 613.885 626.472C645.209 627.118 676.563 626.668 707.903 626.622C714.69 626.622 718.955 622.883 718.88 617.312C718.804 611.741 714.75 607.792 707.933 607.822C675.092 607.927 642.251 607.822 609.425 608.453C587.006 608.843 570.473 620.15 557.063 639.672V639.657ZM555.817 566.227C556.472 566.044 557.102 565.782 557.694 565.446C574.542 550.144 594.604 544.228 617.039 544.423C647.221 544.678 677.389 544.423 707.572 544.423C714.63 544.423 718.759 541.149 718.804 535.593C718.804 529.587 714.66 525.667 707.692 525.682C677.149 525.682 646.591 525.682 616.093 526.028C587.742 526.463 569.497 542.546 555.817 566.242V566.227ZM522.375 638.425C510.362 621.727 495.436 609.549 474.909 608.828C440.101 607.627 405.218 608.227 370.35 608.212C364.343 608.212 360.709 614.009 362.751 619.67C364.658 624.956 368.593 626.803 374.134 626.773C408.051 626.653 441.973 626.653 475.9 626.773C481.514 626.732 487.11 627.408 492.553 628.785C502.359 631.518 511.939 635.032 522.375 638.44V638.425ZM524.673 564.95C522.736 562.052 520.889 559.094 518.862 556.256C506.293 538.687 489.625 527.019 467.806 526.343C435.566 525.337 403.236 526.028 370.98 526.103C365.094 526.103 361.46 530.998 362.511 536.78C363.457 541.885 367.016 544.468 373.173 544.468C402.815 544.468 432.487 544.873 462.13 544.288C485.54 543.822 506.383 549.769 524.673 564.965V564.95Z" fill="#F85657"/>
<path d="M655.091 174.645C654.896 175.576 655.091 177.063 654.4 177.483C651.998 179.135 649.445 181.402 646.787 181.643C643.153 181.988 641.336 179.255 641.381 175.336C641.516 161.446 641.516 147.555 641.501 133.68C641.518 131.633 641.322 129.59 640.915 127.584C640.123 124.673 640.247 121.589 641.271 118.751C642.295 115.914 644.168 113.461 646.637 111.726C648.289 110.469 649.397 108.625 649.73 106.576C650.106 94.9531 650.226 83.3003 650.015 71.6777C649.842 70.6738 649.426 69.7275 648.803 68.9214C648.18 68.1152 647.369 67.4737 646.442 67.0527C628.993 62.1573 611.453 57.5923 593.884 52.9373L593.359 54.3188C595.107 55.2073 596.907 55.9896 598.75 56.6613C613.075 61.0611 627.386 65.4609 641.756 69.6805C644.955 70.6266 647.207 71.5876 646.712 75.6871C646.261 79.1709 647.628 82.5645 642.342 84.3965C609.231 95.8841 576.27 107.882 543.234 119.58C541.342 120.203 539.3 120.203 537.408 119.58C488.424 101.78 439.461 83.896 390.518 65.9264C388.779 65.0719 387.142 64.0241 385.637 62.803C387.259 61.5116 388.641 59.6045 390.503 58.9889C439.035 42.7712 487.588 26.6686 536.161 10.6812C539.147 9.77293 542.335 9.77293 545.321 10.6812C593.103 26.1481 640.83 41.7651 688.502 57.5323C691.726 58.8278 694.861 60.3326 697.888 62.0372L697.437 64.2296L675.003 72.4585C662.584 76.9634 662.584 76.9634 662.629 90.1929C662.629 93.5715 662.809 96.9652 662.629 100.329C662.269 105.735 662.809 110.21 667.78 114.054C670.227 115.946 671.594 120.661 671.579 124.1C671.579 141.113 670.528 158.127 670.558 175.155C670.558 181.477 664.942 183.43 661.037 181.282C658.755 179.841 657.193 177.033 655.091 174.645ZM545.276 43.3868V44.9786C548.81 46.5733 552.453 47.9132 556.178 48.988C558.145 49.4385 560.473 48.2371 562.65 47.7867C561.013 45.8646 559.527 42.5309 557.68 42.3057C553.625 41.8852 549.421 42.9964 545.276 43.4469V43.3868Z" fill="#F85657"/>
<path d="M618.691 102.476C618.691 113.588 618.991 124.265 618.586 134.912C618.301 141.879 613.496 145.904 607.354 148.306C592.533 154.148 577.156 158.818 562.98 165.95C547.439 173.729 533.578 173.579 518.142 165.59C504.912 158.743 490.346 154.463 476.366 149.072C466.681 145.348 462.986 140.152 463.002 129.971C463.002 121.352 463.137 112.732 463.242 104.098C463.339 103.345 463.5 102.602 463.722 101.876C475.06 105.96 486.247 109.984 497.479 114.084C510.498 118.844 523.397 123.935 536.522 128.319C540.045 129.314 543.788 129.198 547.243 127.989C570.924 119.76 594.455 111.171 618.691 102.476Z" fill="#F85657"/>
<path d="M252.351 260.734C250.616 260.708 248.903 260.34 247.311 259.65C245.719 258.959 244.279 257.961 243.074 256.712C241.87 255.462 240.924 253.987 240.292 252.371C239.66 250.754 239.354 249.029 239.392 247.294C239.466 245.413 239.917 243.565 240.716 241.86C241.516 240.155 242.649 238.628 244.049 237.368C245.449 236.109 247.086 235.142 248.866 234.526C250.645 233.909 252.53 233.656 254.409 233.779C256.189 233.843 257.939 234.26 259.557 235.006C261.175 235.753 262.627 236.814 263.831 238.128C265.034 239.442 265.964 240.982 266.566 242.659C267.168 244.336 267.431 246.116 267.338 247.895C267.052 255.283 260.46 260.929 252.351 260.734Z" fill="#F85657"/>
<path d="M826.533 260.674C824.751 260.724 822.978 260.408 821.324 259.745C819.67 259.082 818.169 258.086 816.916 256.819C815.663 255.551 814.683 254.04 814.039 252.378C813.394 250.716 813.098 248.94 813.168 247.159C813.168 243.575 814.592 240.137 817.127 237.603C819.661 235.068 823.099 233.644 826.683 233.644C830.361 233.619 833.903 235.035 836.55 237.589C839.196 240.144 840.738 243.633 840.844 247.309C840.904 254.892 834.552 260.749 826.533 260.674Z" fill="#F85657"/>
<path d="M48.5 876.05C41.2 876.05 34.6 874.8 28.7 872.3C22.9 869.8 18.3 866.2 14.9 861.5C11.5 856.8 9.75 851.25 9.65 844.85H32.15C32.45 849.15 33.95 852.55 36.65 855.05C39.45 857.55 43.25 858.8 48.05 858.8C52.95 858.8 56.8 857.65 59.6 855.35C62.4 852.95 63.8 849.85 63.8 846.05C63.8 842.95 62.85 840.4 60.95 838.4C59.05 836.4 56.65 834.85 53.75 833.75C50.95 832.55 47.05 831.25 42.05 829.85C35.25 827.85 29.7 825.9 25.4 824C21.2 822 17.55 819.05 14.45 815.15C11.45 811.15 9.95 805.85 9.95 799.25C9.95 793.05 11.5 787.65 14.6 783.05C17.7 778.45 22.05 774.95 27.65 772.55C33.25 770.05 39.65 768.8 46.85 768.8C57.65 768.8 66.4 771.45 73.1 776.75C79.9 781.95 83.65 789.25 84.35 798.65H61.25C61.05 795.05 59.5 792.1 56.6 789.8C53.8 787.4 50.05 786.2 45.35 786.2C41.25 786.2 37.95 787.25 35.45 789.35C33.05 791.45 31.85 794.5 31.85 798.5C31.85 801.3 32.75 803.65 34.55 805.55C36.45 807.35 38.75 808.85 41.45 810.05C44.25 811.15 48.15 812.45 53.15 813.95C59.95 815.95 65.5 817.95 69.8 819.95C74.1 821.95 77.8 824.95 80.9 828.95C84 832.95 85.55 838.2 85.55 844.7C85.55 850.3 84.1 855.5 81.2 860.3C78.3 865.1 74.05 868.95 68.45 871.85C62.85 874.65 56.2 876.05 48.5 876.05ZM98.3562 833.45C98.3562 824.85 100.106 817.35 103.606 810.95C107.106 804.45 111.956 799.45 118.156 795.95C124.356 792.35 131.456 790.55 139.456 790.55C149.756 790.55 158.256 793.15 164.956 798.35C171.756 803.45 176.306 810.65 178.606 819.95H155.956C154.756 816.35 152.706 813.55 149.806 811.55C147.006 809.45 143.506 808.4 139.306 808.4C133.306 808.4 128.556 810.6 125.056 815C121.556 819.3 119.806 825.45 119.806 833.45C119.806 841.35 121.556 847.5 125.056 851.9C128.556 856.2 133.306 858.35 139.306 858.35C147.806 858.35 153.356 854.55 155.956 846.95H178.606C176.306 855.95 171.756 863.1 164.956 868.4C158.156 873.7 149.656 876.35 139.456 876.35C131.456 876.35 124.356 874.6 118.156 871.1C111.956 867.5 107.106 862.5 103.606 856.1C100.106 849.6 98.3562 842.05 98.3562 833.45ZM240.791 790.7C247.091 790.7 252.691 792.1 257.591 794.9C262.491 797.6 266.291 801.65 268.991 807.05C271.791 812.35 273.191 818.75 273.191 826.25V875H252.191V829.1C252.191 822.5 250.541 817.45 247.241 813.95C243.941 810.35 239.441 808.55 233.741 808.55C227.941 808.55 223.341 810.35 219.941 813.95C216.641 817.45 214.991 822.5 214.991 829.1V875H193.991V764H214.991V802.25C217.691 798.65 221.291 795.85 225.791 793.85C230.291 791.75 235.291 790.7 240.791 790.7ZM330.061 876.35C322.061 876.35 314.861 874.6 308.461 871.1C302.061 867.5 297.011 862.45 293.311 855.95C289.711 849.45 287.911 841.95 287.911 833.45C287.911 824.95 289.761 817.45 293.461 810.95C297.261 804.45 302.411 799.45 308.911 795.95C315.411 792.35 322.661 790.55 330.661 790.55C338.661 790.55 345.911 792.35 352.411 795.95C358.911 799.45 364.011 804.45 367.711 810.95C371.511 817.45 373.411 824.95 373.411 833.45C373.411 841.95 371.461 849.45 367.561 855.95C363.761 862.45 358.561 867.5 351.961 871.1C345.461 874.6 338.161 876.35 330.061 876.35ZM330.061 858.05C333.861 858.05 337.411 857.15 340.711 855.35C344.111 853.45 346.811 850.65 348.811 846.95C350.811 843.25 351.811 838.75 351.811 833.45C351.811 825.55 349.711 819.5 345.511 815.3C341.411 811 336.361 808.85 330.361 808.85C324.361 808.85 319.311 811 315.211 815.3C311.211 819.5 309.211 825.55 309.211 833.45C309.211 841.35 311.161 847.45 315.061 851.75C319.061 855.95 324.061 858.05 330.061 858.05ZM409.815 764V875H388.815V764H409.815ZM425.163 833.15C425.163 824.75 426.813 817.3 430.113 810.8C433.513 804.3 438.063 799.3 443.763 795.8C449.563 792.3 456.013 790.55 463.113 790.55C469.313 790.55 474.713 791.8 479.313 794.3C484.013 796.8 487.763 799.95 490.563 803.75V791.9H511.713V875H490.563V862.85C487.863 866.75 484.113 870 479.313 872.6C474.613 875.1 469.163 876.35 462.963 876.35C455.963 876.35 449.563 874.55 443.763 870.95C438.063 867.35 433.513 862.3 430.113 855.8C426.813 849.2 425.163 841.65 425.163 833.15ZM490.563 833.45C490.563 828.35 489.563 824 487.563 820.4C485.563 816.7 482.863 813.9 479.463 812C476.063 810 472.413 809 468.513 809C464.613 809 461.013 809.95 457.713 811.85C454.413 813.75 451.713 816.55 449.613 820.25C447.613 823.85 446.613 828.15 446.613 833.15C446.613 838.15 447.613 842.55 449.613 846.35C451.713 850.05 454.413 852.9 457.713 854.9C461.113 856.9 464.713 857.9 468.513 857.9C472.413 857.9 476.063 856.95 479.463 855.05C482.863 853.05 485.563 850.25 487.563 846.65C489.563 842.95 490.563 838.55 490.563 833.45ZM553.223 804.8C555.923 800.4 559.423 796.95 563.723 794.45C568.123 791.95 573.123 790.7 578.723 790.7V812.75H573.173C566.573 812.75 561.573 814.3 558.173 817.4C554.873 820.5 553.223 825.9 553.223 833.6V875H532.223V791.9H553.223V804.8ZM652.268 821.3C658.168 822.4 663.018 825.35 666.818 830.15C670.618 834.95 672.518 840.45 672.518 846.65C672.518 852.25 671.118 857.2 668.318 861.5C665.618 865.7 661.668 869 656.468 871.4C651.268 873.8 645.118 875 638.018 875H592.868V770.3H636.068C643.168 770.3 649.268 771.45 654.368 773.75C659.568 776.05 663.468 779.25 666.068 783.35C668.768 787.45 670.118 792.1 670.118 797.3C670.118 803.4 668.468 808.5 665.168 812.6C661.968 816.7 657.668 819.6 652.268 821.3ZM613.868 813.5H633.068C638.068 813.5 641.918 812.4 644.618 810.2C647.318 807.9 648.668 804.65 648.668 800.45C648.668 796.25 647.318 793 644.618 790.7C641.918 788.4 638.068 787.25 633.068 787.25H613.868V813.5ZM635.018 857.9C640.118 857.9 644.068 856.7 646.868 854.3C649.768 851.9 651.218 848.5 651.218 844.1C651.218 839.6 649.718 836.1 646.718 833.6C643.718 831 639.668 829.7 634.568 829.7H613.868V857.9H635.018ZM710.254 804.8C712.954 800.4 716.454 796.95 720.754 794.45C725.154 791.95 730.154 790.7 735.754 790.7V812.75H730.204C723.604 812.75 718.604 814.3 715.204 817.4C711.904 820.5 710.254 825.9 710.254 833.6V875H689.254V791.9H710.254V804.8ZM760.549 782C756.849 782 753.749 780.85 751.249 778.55C748.849 776.15 747.649 773.2 747.649 769.7C747.649 766.2 748.849 763.3 751.249 761C753.749 758.6 756.849 757.4 760.549 757.4C764.249 757.4 767.299 758.6 769.699 761C772.199 763.3 773.449 766.2 773.449 769.7C773.449 773.2 772.199 776.15 769.699 778.55C767.299 780.85 764.249 782 760.549 782ZM770.899 791.9V875H749.899V791.9H770.899ZM786.247 833.15C786.247 824.75 787.897 817.3 791.197 810.8C794.597 804.3 799.197 799.3 804.997 795.8C810.797 792.3 817.247 790.55 824.347 790.55C829.747 790.55 834.897 791.75 839.797 794.15C844.697 796.45 848.597 799.55 851.497 803.45V764H872.797V875H851.497V862.7C848.897 866.8 845.247 870.1 840.547 872.6C835.847 875.1 830.397 876.35 824.197 876.35C817.197 876.35 810.797 874.55 804.997 870.95C799.197 867.35 794.597 862.3 791.197 855.8C787.897 849.2 786.247 841.65 786.247 833.15ZM851.647 833.45C851.647 828.35 850.647 824 848.647 820.4C846.647 816.7 843.947 813.9 840.547 812C837.147 810 833.497 809 829.597 809C825.697 809 822.097 809.95 818.797 811.85C815.497 813.75 812.797 816.55 810.697 820.25C808.697 823.85 807.697 828.15 807.697 833.15C807.697 838.15 808.697 842.55 810.697 846.35C812.797 850.05 815.497 852.9 818.797 854.9C822.197 856.9 825.797 857.9 829.597 857.9C833.497 857.9 837.147 856.95 840.547 855.05C843.947 853.05 846.647 850.25 848.647 846.65C850.647 842.95 851.647 838.55 851.647 833.45ZM925.857 790.55C932.057 790.55 937.507 791.8 942.207 794.3C946.907 796.7 950.607 799.85 953.307 803.75V791.9H974.457V875.6C974.457 883.3 972.907 890.15 969.807 896.15C966.707 902.25 962.057 907.05 955.857 910.55C949.657 914.15 942.157 915.95 933.357 915.95C921.557 915.95 911.857 913.2 904.257 907.7C896.757 902.2 892.507 894.7 891.507 885.2H912.357C913.457 889 915.807 892 919.407 894.2C923.107 896.5 927.557 897.65 932.757 897.65C938.857 897.65 943.807 895.8 947.607 892.1C951.407 888.5 953.307 883 953.307 875.6V862.7C950.607 866.6 946.857 869.85 942.057 872.45C937.357 875.05 931.957 876.35 925.857 876.35C918.857 876.35 912.457 874.55 906.657 870.95C900.857 867.35 896.257 862.3 892.857 855.8C889.557 849.2 887.907 841.65 887.907 833.15C887.907 824.75 889.557 817.3 892.857 810.8C896.257 804.3 900.807 799.3 906.507 795.8C912.307 792.3 918.757 790.55 925.857 790.55ZM953.307 833.45C953.307 828.35 952.307 824 950.307 820.4C948.307 816.7 945.607 813.9 942.207 812C938.807 810 935.157 809 931.257 809C927.357 809 923.757 809.95 920.457 811.85C917.157 813.75 914.457 816.55 912.357 820.25C910.357 823.85 909.357 828.15 909.357 833.15C909.357 838.15 910.357 842.55 912.357 846.35C914.457 850.05 917.157 852.9 920.457 854.9C923.857 856.9 927.457 857.9 931.257 857.9C935.157 857.9 938.807 856.95 942.207 855.05C945.607 853.05 948.307 850.25 950.307 846.65C952.307 842.95 953.307 838.55 953.307 833.45ZM1072.22 831.65C1072.22 834.65 1072.02 837.35 1071.62 839.75H1010.87C1011.37 845.75 1013.47 850.45 1017.17 853.85C1020.87 857.25 1025.42 858.95 1030.82 858.95C1038.62 858.95 1044.17 855.6 1047.47 848.9H1070.12C1067.72 856.9 1063.12 863.5 1056.32 868.7C1049.52 873.8 1041.17 876.35 1031.27 876.35C1023.27 876.35 1016.07 874.6 1009.67 871.1C1003.37 867.5 998.417 862.45 994.817 855.95C991.317 849.45 989.567 841.95 989.567 833.45C989.567 824.85 991.317 817.3 994.817 810.8C998.317 804.3 1003.22 799.3 1009.52 795.8C1015.82 792.3 1023.07 790.55 1031.27 790.55C1039.17 790.55 1046.22 792.25 1052.42 795.65C1058.72 799.05 1063.57 803.9 1066.97 810.2C1070.47 816.4 1072.22 823.55 1072.22 831.65ZM1050.47 825.65C1050.37 820.25 1048.42 815.95 1044.62 812.75C1040.82 809.45 1036.17 807.8 1030.67 807.8C1025.47 807.8 1021.07 809.4 1017.47 812.6C1013.97 815.7 1011.82 820.05 1011.02 825.65H1050.47Z" fill="#5B5B5B"/>
</svg>
